<?xml version="1.0" encoding="utf-8"?>
<!-- Generator: Adobe Illustrator 19.2.1, SVG Export Plug-In . SVG Version: 6.00 Build 0)  -->
<svg version="1.1" id="Layer_1" xmlns="http://www.w3.org/2000/svg" xmlns:xlink="http://www.w3.org/1999/xlink" x="0px" y="0px"
	 viewBox="0 0 355.5 325.8" style="enable-background:new 0 0 355.5 325.8;" xml:space="preserve">
<style type="text/css">
	.st0{fill:#FED473;}
	.st1{fill:#F79C25;}
	.st2{fill:#63C0B9;}
	.st3{fill:#A1D9D5;}
</style>
<g>
	<g>
		<g>
			<g>
				<path class="st0" d="M213.7,203.7c-17,0-31.9-10.4-37.8-26.1h-21.3c6.3,25.7,29.6,43.4,57.7,43.4c15,0,31.4-6.8,43.5-17.9
					l-11-11.9C235.8,198.9,224.1,203.7,213.7,203.7z"/>
			</g>
			<g>
				<path class="st1" d="M206.8,22.5c36.6,0,72.8,14.1,99.3,38.7l11.1-14.2c-30.6-27.3-70-42.3-110.8-42.3
					C123.4,4.8,53,66.7,44.4,146.2h18.6C71.4,75.5,132.7,22.5,206.8,22.5z"/>
			</g>
			<g>
				<path class="st2" d="M246.8,245.1c-11.8,4.8-24.1,7.2-36.6,7.2c-17,0-32.8-4.1-47.2-12.2c-14.4-8.1-25.9-19.2-34.1-33.1
					c-5.5-9.2-9.2-19.1-11.1-29.6H97.6c2,14,6.7,27.2,13.9,39.3c10,16.8,23.8,30.3,40.9,40.1c17.1,9.8,36.1,14.7,56.6,14.7
					c14.7,0,29.3-3,43.3-9c6.5-2.8,12.8-6.1,18.8-9.9l2.2-1.4l19.2,24.1l-2.6,1.8c-24.8,16.8-53.5,25.6-83.1,25.6
					C133.5,302.8,70.9,248,63,177.5H44.3C52,258.2,122.6,321,206.3,321c40.7,0,81.2-15.9,111.4-43.7L276,226.9
					C267.4,234.6,257.6,240.7,246.8,245.1z"/>
			</g>
			<g>
				<path class="st3" d="M213.7,121.9c10.6,0,22.3,5.2,31.1,13.7l42.9-53.5c-10.1-9-21.8-16.3-34.8-21.5h0
					c-13.8-5.6-28.3-8.4-43-8.4c-20.6,0-39.8,4.9-57,14.7c-17.2,9.7-31.1,23.1-41.2,39.6c-7.5,12.2-12.2,25.6-14.2,39.7h20.1
					c1.8-10.9,5.6-21.2,11.3-30.8c8.3-13.8,19.7-24.9,34-33c14.3-8.1,30.2-12.1,47.3-12.1c12.5,0,24.9,2.6,36.8,7.7
					c3.7,1.6,7.5,3.5,11.7,6.1l2.9,1.7l-21,26.4l-2.1-0.9c-8.2-3.6-16.9-5.5-25.2-5.5c-27.8,0-50.7,16.1-58,40.4h21.3
					C183,131.4,197.3,121.9,213.7,121.9z"/>
			</g>
		</g>
		<circle class="st0" cx="302" cy="46.3" r="15.8"/>
		<circle class="st2" cx="166.7" cy="142.1" r="15.8"/>
		<circle class="st3" cx="53.4" cy="181.5" r="15.8"/>
		<circle class="st1" cx="248.4" cy="198.2" r="15.8"/>
	</g>
</g>
</svg>
